<svg aria-hidden="true" xmlns="http://www.w3.org/2000/svg" xmlns:xlink="http://www.w3.org/1999/xlink"><symbol viewBox="0 0 15 14" fill="none" id="icon-arrow" xmlns="http://www.w3.org/2000/svg">
<path d="M7.5 0L9.18386 5.18237H14.6329L10.2245 8.38525L11.9084 13.5676L7.5 10.3647L3.09161 13.5676L4.77547 8.38525L0.367076 5.18237H5.81614L7.5 0Z" fill="currentColor"/>
</symbol><symbol viewBox="0 0 17 16" fill="none" id="icon-arrow-rotate" xmlns="http://www.w3.org/2000/svg">
<path d="M16.1421 1.00002C16.1421 0.447731 15.6944 1.55143e-05 15.1421 1.55143e-05L6.14214 1.55143e-05C5.58985 1.55143e-05 5.14214 0.447731 5.14214 1.00002C5.14214 1.5523 5.58985 2.00002 6.14214 2.00002H14.1421V10C14.1421 10.5523 14.5899 11 15.1421 11C15.6944 11 16.1421 10.5523 16.1421 10L16.1421 1.00002ZM1 15.1422L1.70711 15.8493L15.8492 1.70712L15.1421 1.00002L14.435 0.292909L0.292893 14.435L1 15.1422Z" fill="currentColor"/>
</symbol><symbol viewBox="0 0 32 20" fill="none" id="icon-burger" xmlns="http://www.w3.org/2000/svg">
<path d="M0.730469 20V16.6667H31.6828V20H0.730469ZM0.730469 11.6667V8.33333H31.6828V11.6667H0.730469ZM0.730469 3.33333V0H31.6828V3.33333H0.730469Z" fill="currentColor"/>
</symbol><symbol viewBox="0 0 14 14" fill="none" id="icon-close" xmlns="http://www.w3.org/2000/svg">
<path d="M1 1L7 7M13 13L7 7M7 7L13 1L1 13" stroke="currentColor" stroke-linecap="round"/>
</symbol></svg>